<svg xmlns="http://www.w3.org/2000/svg" viewBox="0 0 286 230"><defs><style>.a{fill:#fff;}.a,.b{stroke:#3d4752;stroke-miterlimit:10;stroke-width:3px;}.b{fill:none;}.c{fill:#3d4752;}</style></defs><title>database model feature</title><rect class="a" x="218.69" y="1.68" width="65.81" height="51.22" rx="4.37" ry="4.37"/><rect class="a" x="218.69" y="177.1" width="65.81" height="51.22" rx="4.37" ry="4.37"/><rect class="a" x="113.38" y="177.1" width="65.81" height="51.22" rx="4.37" ry="4.37"/><rect class="a" x="113.38" y="80.76" width="65.81" height="51.22" rx="4.37" ry="4.37"/><rect class="a" x="1.5" y="80.58" width="65.81" height="51.22" rx="4.37" ry="4.37"/><rect class="a" x="1.5" y="177.28" width="65.81" height="51.22" rx="4.37" ry="4.37"/><rect class="a" x="1.5" y="1.5" width="65.81" height="51.22" rx="4.37" ry="4.37"/><line class="b" x1="1.5" y1="15.88" x2="67.31" y2="15.88"/><line class="b" x1="218.69" y1="16.06" x2="284.5" y2="16.06"/><line class="b" x1="1.5" y1="94.96" x2="67.31" y2="94.96"/><line class="b" x1="113.38" y1="95.14" x2="179.2" y2="95.14"/><line class="b" x1="218.69" y1="191.48" x2="284.5" y2="191.48"/><line class="b" x1="113.38" y1="191.48" x2="179.2" y2="191.48"/><line class="b" x1="1.5" y1="191.66" x2="67.31" y2="191.66"/><line class="b" x1="34.41" y1="80.58" x2="34.41" y2="62.21"/><path class="c" d="M34.41,53.15C36,57.41,38.68,62.7,41.54,66L34.41,63.4,27.27,66C30.13,62.7,32.83,57.41,34.41,53.15Z"/><line class="b" x1="34.41" y1="131.8" x2="34.41" y2="167.79"/><path class="c" d="M34.41,176.85c-1.58-4.26-4.28-9.54-7.13-12.82l7.13,2.58L41.54,164C38.68,167.3,36,172.59,34.41,176.85Z"/><line class="b" x1="67.31" y1="20.05" x2="209.3" y2="20.05"/><path class="c" d="M218.36,20c-4.26,1.58-9.54,4.28-12.82,7.13L208.12,20l-2.58-7.13C208.81,15.77,214.1,18.47,218.36,20Z"/><path class="b" d="M146.29,80.76V47.9A8.73,8.73,0,0,1,155,39.17h54.61"/><path class="c" d="M218.69,39.17c-4.26,1.58-9.54,4.28-12.82,7.13l2.58-7.13L205.86,32C209.14,34.9,214.43,37.59,218.69,39.17Z"/><line class="b" x1="251.59" y1="177.1" x2="251.59" y2="62.39"/><path class="c" d="M251.59,53.33c1.58,4.26,4.28,9.54,7.13,12.82l-7.13-2.58-7.13,2.58C247.32,62.88,250,57.59,251.59,53.33Z"/><path class="b" d="M146.29,132v13.7a8.73,8.73,0,0,1-8.73,8.73H62.37a8.73,8.73,0,0,0-8.73,8.73v4.65"/><path class="c" d="M53.64,176.85c-1.58-4.26-4.28-9.54-7.13-12.82l7.13,2.58L60.78,164C57.92,167.3,55.22,172.59,53.64,176.85Z"/><line class="b" x1="218.36" y1="196.29" x2="188.25" y2="196.29"/><path class="c" d="M179.2,196.29c4.26-1.58,9.54-4.28,12.82-7.13l-2.58,7.13,2.58,7.13C188.74,200.57,183.46,197.87,179.2,196.29Z"/><rect class="c" x="218.36" y="195.93" width="0.33" height="0.72"/><line class="b" x1="67.31" y1="196.47" x2="104" y2="196.47"/><path class="c" d="M113.05,196.47c-4.26,1.58-9.54,4.28-12.82,7.13l2.58-7.13-2.58-7.13C103.51,192.2,108.79,194.89,113.05,196.47Z"/></svg>