<?xml version="1.0" encoding="iso-8859-1"?>
<!-- Generator: Adobe Illustrator 19.0.0, SVG Export Plug-In . SVG Version: 6.00 Build 0)  -->
<svg version="1.1" id="Layer_1" xmlns="http://www.w3.org/2000/svg" xmlns:xlink="http://www.w3.org/1999/xlink" x="0px" y="0px"
	 viewBox="0 0 480.8 480.8" style="enable-background:new 0 0 480.8 480.8;" xml:space="preserve">
<circle style="fill:#76B3DD;" cx="240.4" cy="145.6" r="145.6"/>
<path style="fill:#A0CFEA;" d="M94.8,145.6C94.8,64.8,160.4,0,240.4,0"/>
<path style="fill:#5FA6CE;" d="M386,145.6c0,80.8-65.6,145.6-145.6,145.6S94.8,225.6,94.8,145.6"/>
<path style="fill:#4396BF;" d="M386,145.6c0,80.8-65.6,145.6-145.6,145.6"/>
<path style="fill:#00233F;" d="M383.6,480c-31.2-32-83.2-49.6-143.2-49.6S128.4,448,97.2,480H383.6z"/>
<path style="fill:#5FA6CE;" d="M383.6,480c-31.2-32-83.2-49.6-143.2-49.6S128.4,448,97.2,480H383.6z"/>
<path style="fill:#4396BF;" d="M96.4,480h287.2c-30.4-32-84-49.6-143.2-49.6"/>
<path style="fill:#2183AA;" d="M383.6,480.8c-31.2-30.4-83.2-50.4-143.2-50.4"/>
<g>
	<path style="fill:#00233F;" d="M272.4,312c0,4.8-3.2,8-8,8h-48c-4.8,0-8-3.2-8-8l0,0c0-4.8,3.2-8,8-8h48
		C269.2,304,272.4,307.2,272.4,312L272.4,312z"/>
	<path style="fill:#00233F;" d="M272.4,336c0,4.8-3.2,8-8,8h-48c-4.8,0-8-3.2-8-8l0,0c0-4.8,3.2-8,8-8h48
		C269.2,328,272.4,331.2,272.4,336L272.4,336z"/>
	<path style="fill:#00233F;" d="M272.4,360c0,4.8-3.2,8-8,8h-48c-4.8,0-8-3.2-8-8l0,0c0-4.8,3.2-8,8-8h48
		C269.2,352,272.4,355.2,272.4,360L272.4,360z"/>
	<path style="fill:#00233F;" d="M272.4,384c0,4.8-3.2,8-8,8h-48c-4.8,0-8-3.2-8-8l0,0c0-4.8,3.2-8,8-8h48
		C269.2,376,272.4,379.2,272.4,384L272.4,384z"/>
	<path style="fill:#00233F;" d="M272.4,408c0,4.8-3.2,8-8,8h-48c-4.8,0-8-3.2-8-8l0,0c0-4.8,3.2-8,8-8h48
		C269.2,400,272.4,403.2,272.4,408L272.4,408z"/>
</g>
<path style="fill:#4396BF;" d="M342,145.6c0,56-45.6,144-101.6,144s-101.6-88-101.6-144S184.4,44,240.4,44
	C296.4,43.2,342,88.8,342,145.6z"/>
<path style="fill:#1F759B;" d="M342,145.6c0,56-45.6,101.6-101.6,101.6s-101.6-45.6-101.6-101.6S184.4,44,240.4,44
	C296.4,43.2,342,88.8,342,145.6z"/>
<path style="fill:#0B6382;" d="M168.4,73.6c40-40,104-40,144,0s40,104,0,144"/>
<circle style="fill:#13D1BA;" cx="240.4" cy="145.6" r="70.4"/>
<path style="fill:#0FAAA6;" d="M240.4,75.2c38.4,0,70.4,31.2,70.4,70.4c0,38.4-31.2,70.4-70.4,70.4"/>
<circle style="fill:#13D1BA;" cx="240.4" cy="145.6" r="44.8"/>
<path style="fill:#0FAAA6;" d="M195.6,145.6c0-24.8,20-44.8,44.8-44.8s44.8,20,44.8,44.8"/>
<g style="opacity:0.6;">
	<circle style="fill:#13D1BA;" cx="240.4" cy="145.6" r="44.8"/>
	<path style="fill:#0FAAA6;" d="M208.4,176.8c-17.6-17.6-17.6-46.4,0-64s46.4-17.6,64,0"/>
</g>
<g>
	<path style="fill:#F0FFFD;" d="M237.2,127.2c0,8-6.4,14.4-14.4,14.4s-14.4-6.4-14.4-14.4s6.4-14.4,14.4-14.4
		C230.8,112,237.2,119.2,237.2,127.2z"/>
	<path style="fill:#F0FFFD;" d="M254.8,155.2c0,1.6-0.8,2.4-2.4,2.4c-0.8,0-2.4-0.8-2.4-2.4c0-0.8,0.8-2.4,2.4-2.4
		S254.8,153.6,254.8,155.2z"/>
	<circle style="fill:#F0FFFD;" cx="265.2" cy="169.6" r="5.6"/>
</g>
<g>
</g>
<g>
</g>
<g>
</g>
<g>
</g>
<g>
</g>
<g>
</g>
<g>
</g>
<g>
</g>
<g>
</g>
<g>
</g>
<g>
</g>
<g>
</g>
<g>
</g>
<g>
</g>
<g>
</g>
</svg>
