<?xml version="1.0" encoding="UTF-8" standalone="no"?>
<!-- Created with Inkscape (http://www.inkscape.org/) -->

<svg
   xmlns:dc="http://purl.org/dc/elements/1.1/"
   xmlns:cc="http://creativecommons.org/ns#"
   xmlns:rdf="http://www.w3.org/1999/02/22-rdf-syntax-ns#"
   xmlns:svg="http://www.w3.org/2000/svg"
   xmlns="http://www.w3.org/2000/svg"
   xmlns:sodipodi="http://sodipodi.sourceforge.net/DTD/sodipodi-0.dtd"
   xmlns:inkscape="http://www.inkscape.org/namespaces/inkscape"
   version="1.0"
   width="900"
   height="900"
   id="svg2848"
   sodipodi:version="0.32"
   inkscape:version="0.47 r22583"
   sodipodi:docname="Wikimedia_Community_Logo.svg">
  <metadata
     id="metadata1970">
    <rdf:RDF>
      <cc:Work
         rdf:about="">
        <dc:format>image/svg+xml</dc:format>
        <dc:type
           rdf:resource="http://purl.org/dc/dcmitype/StillImage" />
        <dc:title></dc:title>
      </cc:Work>
    </rdf:RDF>
  </metadata>
  <sodipodi:namedview
     inkscape:window-height="846"
     inkscape:window-width="1600"
     inkscape:pageshadow="2"
     inkscape:pageopacity="0.0"
     guidetolerance="10.0"
     gridtolerance="10.0"
     objecttolerance="10.0"
     borderopacity="1.0"
     bordercolor="#666666"
     pagecolor="#ffffff"
     id="base"
     height="900px"
     width="900px"
     inkscape:zoom="0.36376715"
     inkscape:cx="523.6355"
     inkscape:cy="457.88903"
     inkscape:window-x="-4"
     inkscape:window-y="-4"
     inkscape:current-layer="svg2848"
     showgrid="false"
     inkscape:window-maximized="1" />
  <defs
     id="defs2850">
    <inkscape:perspective
       sodipodi:type="inkscape:persp3d"
       inkscape:vp_x="0 : 450 : 1"
       inkscape:vp_y="0 : 1000 : 0"
       inkscape:vp_z="900 : 450 : 1"
       inkscape:persp3d-origin="450 : 300 : 1"
       id="perspective11" />
    <inkscape:perspective
       id="perspective2901"
       inkscape:persp3d-origin="0.5 : 0.33333333 : 1"
       inkscape:vp_z="1 : 0.5 : 1"
       inkscape:vp_y="0 : 1000 : 0"
       inkscape:vp_x="0 : 0.5 : 1"
       sodipodi:type="inkscape:persp3d" />
    <inkscape:perspective
       id="perspective3645"
       inkscape:persp3d-origin="0.5 : 0.33333333 : 1"
       inkscape:vp_z="1 : 0.5 : 1"
       inkscape:vp_y="0 : 1000 : 0"
       inkscape:vp_x="0 : 0.5 : 1"
       sodipodi:type="inkscape:persp3d" />
    <inkscape:perspective
       id="perspective3667"
       inkscape:persp3d-origin="0.5 : 0.33333333 : 1"
       inkscape:vp_z="1 : 0.5 : 1"
       inkscape:vp_y="0 : 1000 : 0"
       inkscape:vp_x="0 : 0.5 : 1"
       sodipodi:type="inkscape:persp3d" />
    <inkscape:perspective
       id="perspective3689"
       inkscape:persp3d-origin="0.5 : 0.33333333 : 1"
       inkscape:vp_z="1 : 0.5 : 1"
       inkscape:vp_y="0 : 1000 : 0"
       inkscape:vp_x="0 : 0.5 : 1"
       sodipodi:type="inkscape:persp3d" />
    <inkscape:perspective
       id="perspective3737"
       inkscape:persp3d-origin="0.5 : 0.33333333 : 1"
       inkscape:vp_z="1 : 0.5 : 1"
       inkscape:vp_y="0 : 1000 : 0"
       inkscape:vp_x="0 : 0.5 : 1"
       sodipodi:type="inkscape:persp3d" />
    <inkscape:perspective
       id="perspective2825"
       inkscape:persp3d-origin="0.5 : 0.33333333 : 1"
       inkscape:vp_z="1 : 0.5 : 1"
       inkscape:vp_y="0 : 1000 : 0"
       inkscape:vp_x="0 : 0.5 : 1"
       sodipodi:type="inkscape:persp3d" />
    <inkscape:perspective
       id="perspective3773"
       inkscape:persp3d-origin="0.5 : 0.33333333 : 1"
       inkscape:vp_z="1 : 0.5 : 1"
       inkscape:vp_y="0 : 1000 : 0"
       inkscape:vp_x="0 : 0.5 : 1"
       sodipodi:type="inkscape:persp3d" />
    <inkscape:perspective
       id="perspective2838"
       inkscape:persp3d-origin="0.5 : 0.33333333 : 1"
       inkscape:vp_z="1 : 0.5 : 1"
       inkscape:vp_y="0 : 1000 : 0"
       inkscape:vp_x="0 : 0.5 : 1"
       sodipodi:type="inkscape:persp3d" />
    <inkscape:perspective
       id="perspective3893"
       inkscape:persp3d-origin="0.5 : 0.33333333 : 1"
       inkscape:vp_z="1 : 0.5 : 1"
       inkscape:vp_y="0 : 1000 : 0"
       inkscape:vp_x="0 : 0.5 : 1"
       sodipodi:type="inkscape:persp3d" />
    <inkscape:perspective
       id="perspective3978"
       inkscape:persp3d-origin="0.5 : 0.33333333 : 1"
       inkscape:vp_z="1 : 0.5 : 1"
       inkscape:vp_y="0 : 1000 : 0"
       inkscape:vp_x="0 : 0.5 : 1"
       sodipodi:type="inkscape:persp3d" />
    <inkscape:perspective
       id="perspective4108"
       inkscape:persp3d-origin="0.5 : 0.33333333 : 1"
       inkscape:vp_z="1 : 0.5 : 1"
       inkscape:vp_y="0 : 1000 : 0"
       inkscape:vp_x="0 : 0.5 : 1"
       sodipodi:type="inkscape:persp3d" />
  </defs>
  <text
     xml:space="preserve"
     style="font-size:22.56686211px;font-style:normal;font-weight:normal;fill:#ffffff;fill-opacity:1;stroke:none;font-family:Arial;-inkscape-font-specification:Arial"
     x="511.26068"
     y="318.97195"
     id="text3703"
     transform="scale(0.87913349,1.1374837)"><tspan
       sodipodi:role="line"
       id="tspan3705"
       x="511.26068"
       y="318.97195">[22:08] * Quits John (~John@wikimedia/John) </tspan><tspan
       sodipodi:role="line"
       x="511.26068"
       y="347.18054"
       id="tspan3727">(Ping timeout: 276 seconds)</tspan><tspan
       sodipodi:role="line"
       x="511.26068"
       y="375.3891"
       id="tspan3725">[20:59] &lt;Bob&gt; /join #wikimedia</tspan><tspan
       sodipodi:role="line"
       x="511.26068"
       y="403.59769"
       id="tspan3707">[21:03] &lt;Sally&gt; Hi!</tspan><tspan
       sodipodi:role="line"
       x="511.26068"
       y="431.80627"
       id="tspan3709">[21:04] &lt;Bob&gt; Hello :)</tspan><tspan
       sodipodi:role="line"
       x="511.26068"
       y="460.01486"
       id="tspan3717">[21:30: &lt;Steve&gt; Bye</tspan><tspan
       sodipodi:role="line"
       x="511.26068"
       y="488.22342"
       id="tspan3713" /><tspan
       sodipodi:role="line"
       x="511.26068"
       y="516.43195"
       id="tspan3715" /></text>
  <path
     style="fill:#339966;fill-opacity:1;stroke:#ffffff;stroke-width:0;stroke-miterlimit:4;stroke-opacity:0;stroke-dasharray:none;stroke-dashoffset:0"
     d="M 628.96875 495.125 C 596.53869 495.125 570.10155 519.4872 568.5625 550.0625 C 576.82748 538.75485 589.61096 545.36441 582.625 559.59375 L 582.40625 560.0625 C 582.58691 561.42189 582.5148 562.78841 582.46875 564.15625 L 582.8125 564.625 C 583.58771 565.73334 584.18219 566.52145 584.46875 568.1875 C 584.56924 568.77173 584.55568 569.37491 584.53125 569.96875 C 584.67577 570.58922 584.54186 571.24132 584.4375 571.90625 C 584.47805 571.26001 584.5047 570.61409 584.53125 569.96875 C 584.50877 569.87223 584.50677 569.78127 584.46875 569.6875 C 583.98637 568.49777 583.21482 567.4412 582.4375 566.40625 C 582.43912 566.41636 582.43624 566.36901 582.4375 566.375 C 581.95372 565.73119 581.46985 565.10501 581.03125 564.4375 C 579.36899 564.3288 578.0278 564.21023 576.96875 564.09375 C 577.67691 568.36404 576.29142 576.86679 577.875 579.15625 C 581.28261 579.57821 579.58425 579.51068 584.28125 575.03125 C 584.55231 574.77274 583.95037 575.67438 583.71875 575.96875 C 583.37852 576.40117 582.96977 576.78582 582.59375 577.1875 C 580.02555 579.93101 578.61721 580.22929 577.875 579.15625 C 577.15586 579.0672 576.25594 578.94078 574.96875 578.84375 C 584.93624 597.67173 605.3488 610.59375 628.96875 610.59375 C 662.38826 610.59375 689.5 584.75798 689.5 552.875 C 689.5 520.99202 662.38826 495.125 628.96875 495.125 z M 581.875 561.09375 L 581.71875 561.40625 C 581.68705 561.52585 581.58539 561.89847 581.625 561.78125 C 581.70126 561.55552 581.79481 561.31899 581.875 561.09375 z M 581.75 563.03125 C 581.70216 563.0757 581.76086 563.47783 581.96875 563.625 C 582.01705 563.6592 581.9557 563.49384 581.9375 563.4375 C 581.84248 563.15332 581.77637 563.00675 581.75 563.03125 z "
     id="path3628" />
  <a
     id="a3762"
     transform="matrix(0.47333333,0,0,0.47333333,717.68307,297.61525)">
    <path
       transform="translate(-630.59318,-58.200893)"
       d="m 529.18466,623.72437 c 0,57.693 -46.15403,104.46243 -103.08792,104.46243 -56.93389,0 -103.08792,-46.76943 -103.08792,-104.46243 0,-57.69301 46.15403,-104.46244 103.08792,-104.46244 56.93389,0 103.08792,46.76943 103.08792,104.46244 z"
       sodipodi:ry="104.46243"
       sodipodi:rx="103.08792"
       sodipodi:cy="623.72437"
       sodipodi:cx="426.09674"
       id="path3635"
       style="fill:#ffffff;fill-opacity:1;stroke:#ffffff;stroke-width:0;stroke-miterlimit:4;stroke-opacity:0;stroke-dasharray:none;stroke-dashoffset:0"
       sodipodi:type="arc" />
  </a>
  <path
     style="fill:#990000;fill-opacity:1;stroke:#ffffff;stroke-width:0;stroke-miterlimit:4;stroke-opacity:0;stroke-dasharray:none;stroke-dashoffset:0"
     d="M 249.28125 246.96875 C 183.23794 246.96875 129.6875 298.05566 129.6875 361.0625 C 129.6875 412.13206 164.87705 455.32971 213.375 469.875 C 213.43901 468.09339 213.50225 466.313 213.5625 464.53125 C 212.87115 465.60465 212.14112 466.66677 211.375 467.6875 C 210.50904 468.84124 212.20833 464.94358 212.625 463.5625 C 213.78443 460.98195 212.42851 463.95181 214.28125 460.3125 C 214.27715 460.3036 214.28536 460.29016 214.28125 460.28125 C 214.04423 459.76702 214.37229 459.33063 214.84375 458.90625 C 215.97498 453.99761 216.70982 448.97276 219.15625 444.4375 C 220.61359 441.73584 221.7492 439.95666 222.90625 438.46875 C 223.71457 436.45427 224.69993 434.08098 225.4375 432.78125 C 226.66464 430.61882 228.07622 428.56057 229.46875 426.5 C 229.61512 426.18274 229.6799 426.04128 229.84375 425.6875 C 229.71911 426.04273 229.74962 425.95331 229.65625 426.21875 C 229.6773 426.18751 229.69772 426.15625 229.71875 426.125 C 229.73298 426.10385 229.76244 426.05744 229.78125 426.03125 C 230.36503 424.5372 231.15463 422.61998 231.75 421.53125 C 234.13999 417.16078 237.35965 413.54844 241.0625 410.46875 C 240.99855 408.00647 243.19294 406.11108 248.75 405.09375 C 250.30386 404.18267 251.92174 403.36901 253.5 402.5 C 269.23605 393.83554 269.58058 396.81857 266.34375 404.28125 C 269.70895 404.83245 272.87454 406.22154 275.40625 409.34375 C 275.71741 409.72748 276.01929 410.13338 276.3125 410.53125 C 277.01045 410.05242 277.70015 409.60423 278.4375 409.28125 C 279.55323 408.79253 280.68034 408.35603 281.8125 407.90625 C 284.30257 384.20938 305.26915 380.84386 313.03125 397.78125 C 313.26106 397.57906 313.48415 397.38461 313.71875 397.1875 C 314.81314 396.26803 316.51121 396.56143 317.90625 396.25 C 318.78573 396.05367 318.95159 396.2042 318.59375 395.96875 C 319.51158 395.71463 320.4128 395.41954 321.34375 395.21875 C 322.47909 394.97387 323.63561 394.81594 324.78125 394.625 C 325.00934 394.632 325.24062 394.65005 325.46875 394.65625 C 324.9675 394.46585 327.27304 394.39393 328.09375 394.3125 C 329.24639 394.19813 330.40687 393.98395 331.5625 394.0625 C 338.52951 394.53607 338.51417 394.85013 344.34375 396.625 C 345.71894 397.19918 347.07929 397.80502 348.46875 398.34375 C 348.54575 398.37365 348.23 398.15175 348.3125 398.15625 C 348.51393 398.16725 348.71386 398.21465 348.90625 398.28125 C 353.31755 395.06384 358.43984 394.6245 362.8125 396.96875 C 366.74007 385.68187 368.875 373.60727 368.875 361.0625 C 368.875 298.05566 315.32456 246.96875 249.28125 246.96875 z M 335.09375 413.3125 C 335.08475 413.3175 335.0658 413.3346 335.0625 413.375 C 335.0425 413.61473 335.1597 414.24457 335.3125 414.90625 C 335.3185 414.70791 335.34735 414.51106 335.34375 414.3125 C 335.33875 414.02838 335.15841 413.27878 335.09375 413.3125 z M 242.15625 413.71875 C 241.92573 413.93182 241.4134 414.55629 241.25 414.875 C 240.28546 416.75634 238.68065 418.58815 237.71875 420.5 C 238.41904 419.44963 239.72826 417.38395 239.375 418.28125 C 238.84859 419.61834 237.85286 420.72808 237.125 421.96875 C 237.04231 422.25896 236.97535 422.54658 236.9375 422.84375 C 238.70215 419.84301 240.55214 416.86836 242.21875 413.8125 C 242.19923 413.7798 242.17532 413.75134 242.15625 413.71875 z M 257.5625 428.4375 C 257.5025 429.06796 257.44373 429.69625 257.4375 430.3125 C 257.51452 430.1319 257.61148 429.96271 257.6875 429.78125 C 257.79088 429.46631 257.91364 429.15418 258.03125 428.84375 C 257.86792 428.71278 257.72571 428.56849 257.5625 428.4375 z M 215.15625 462.1875 C 214.35748 464.67466 213.99481 467.31763 213.53125 469.90625 C 215.39801 470.46351 217.28263 470.99762 219.1875 471.46875 C 218.01079 468.61656 216.69945 465.59382 215.15625 462.1875 z "
     id="path3628-4" />
  <path
     style="fill:#ffffff;fill-opacity:1;stroke:#ffffff;stroke-width:0;stroke-miterlimit:4;stroke-opacity:0;stroke-dasharray:none;stroke-dashoffset:0"
     d="m 276.33916,291.17069 c -56.93389,0 -103.09375,46.77574 -103.09375,104.46875 0,38.98118 21.08309,72.95575 52.3125,90.90625 -0.0809,-2.94824 0.62239,-5.41515 2.71875,-10.15625 0.96445,-2.18117 3.08086,-3.62 4.625,-5.4375 -0.13961,0.0632 -0.25534,0.2142 -0.40625,0.1875 -0.0858,-0.0152 -0.0458,-0.20712 0,-0.28125 0.4854,-0.78643 1.03744,-1.52073 1.5625,-2.28125 1.2403,-1.79647 2.8442,-3.46727 3.71875,-5.46875 2.76482,-4.9832 4.7486,-10.35728 7.90625,-15.125 0.91337,-1.3791 1.9573,-2.66756 2.9375,-4 1.61193,-2.18131 2.92312,-4.56565 4.53125,-6.75 1.5053,-2.04468 3.22013,-3.89947 4.6875,-5.96875 4.51134,-6.09703 11.45714,-9.5047 17.75,-13.40625 8.71252,-5.7401 18.99231,-8.20643 28.9375,-10.90625 8.68958,-2.15279 16.80869,-6.17212 25.46875,-8.40625 2.09363,-0.54012 4.22964,-0.92161 6.34375,-1.375 -2.49717,0.58139 3.28713,-0.5853 5.9375,-0.96875 -0.37261,-0.0358 -0.3301,-0.049 0.375,-0.0625 0.61797,-0.0818 0.99032,-0.12006 0.90625,-0.0312 0.78533,-0.0138 1.60328,-0.0157 3.4375,-0.0625 14.71579,-0.37576 9.62243,6.20409 1.875,13.6875 0.13854,0.0357 0.26953,0.0802 0.40625,0.125 0.23907,-0.005 0.44337,-0.005 0.84375,-0.0312 21.23068,-1.28772 14.36007,13.46314 14.1875,30.34375 -0.006,0.60253 -0.61327,1.03792 -1,1.5 -0.1903,0.22738 -0.32037,0.34961 -0.5,0.5625 0.5417,1.47931 1.03278,3.06399 1.46875,4.78125 0.18287,0.72033 0.39584,1.43925 0.59375,2.15625 9.23915,-15.65627 14.5625,-33.96287 14.5625,-53.53125 0,-57.69301 -46.15986,-104.46875 -103.09375,-104.46875 z m 66.78125,105.125 c -1.65173,0.56585 -3.73069,0.0379 -5.09375,1.125 -3.79648,3.02785 -14.38615,12.28848 -9.75,10.84375 31.41168,-9.78857 18.67163,-11.58355 14.84375,-11.96875 z m 7.6875,14.09375 c 0.0627,0.0204 0.12443,0.0438 0.1875,0.0625 0.0845,0.025 0.33574,0.0516 0.25,0.0312 -0.14671,-0.0346 -0.29059,-0.0599 -0.4375,-0.0937 z m -111.53125,66.28125 c -0.015,0.007 -0.0483,0.025 -0.0625,0.0312 -0.19247,0.0848 -0.59793,0.39714 -0.71875,0.5 0.26287,-0.14869 0.52364,-0.31111 0.78125,-0.46875 0.006,-0.0143 -0.005,-0.0487 0,-0.0625 z m -7.59375,4.3125 c -0.32069,0.0409 -3.0734,2.27242 -2.3125,1.90625 0.50701,-0.24399 0.9988,-0.49275 1.5,-0.75 0.26431,-0.35132 0.49935,-0.64301 0.78125,-1.03125 0.0709,-0.0976 0.0771,-0.13084 0.0312,-0.125 z m -5.3125,4.375 c -0.14007,0.48493 -0.34475,0.94176 -0.4375,1.4375 0.008,0.005 0.0233,-0.005 0.0312,0 0.50708,-0.98175 0.67634,-0.35316 0.40625,-1.4375 z"
     id="path3635-7" />
  <g
     id="g4085"
     transform="matrix(1.1828713,0,0,1.1828713,-62.690069,-162.7159)">
    <path
       id="path2862-4"
       d="m 389.40625,448.65625 c -19.59069,0.39982 -39.36918,4.05098 -58.625,11.28125 15.03844,-0.70932 29.97226,0.32289 44.53125,3.0625 5.0238,-4.50241 9.7171,-9.30889 14.09375,-14.34375 z M 404.4375,449 c -4.66521,6.02006 -9.71794,11.75184 -15.1875,17.15625 26.82225,7.13703 51.9138,20.04312 73.34375,37.90625 7.95064,-9.62164 15.14984,-19.8013 21.5625,-30.40625 C 460.0244,459.31896 432.64603,450.82841 404.4375,449 z m -90.375,18.1875 c -0.10459,0.0518 -0.20801,0.10425 -0.3125,0.15625 0.0407,0.006 0.084,0.0245 0.125,0.0312 0.0634,-0.062 0.12393,-0.1256 0.1875,-0.1875 z m 26.0625,4.25 c -2.56752,-0.006 -5.11218,0.05 -7.6875,0.15625 l 6.875,15.875 c 8.45102,-4.20258 16.36337,-9.08256 23.75,-14.5 -7.5677,-0.98474 -15.23494,-1.51373 -22.9375,-1.53125 z m 38.625,4.25 c -10.44023,8.74866 -22.0585,16.36588 -34.75,22.625 l 31.78125,73.25 C 406.58743,556.95912 433.1892,536.8761 454.875,513 432.83843,494.63361 406.64708,481.85993 378.75,475.6875 z m -57.21875,0.59375 c -7.76965,7.64164 -14.7499,15.92852 -20.9375,24.71875 9.38805,-2.00668 18.72498,-4.91577 27.90625,-8.6875 l -6.96875,-16.03125 z m 172.59375,3.8125 c -6.73697,11.11697 -14.3062,21.76271 -22.65625,31.84375 17.95387,16.98931 32.81934,37.7662 43.25,61.8125 2.15533,4.96878 4.08377,9.98811 5.78125,15.03125 C 532.48862,576.44308 543.49507,563.30981 553.46875,549.5 539.63146,520.63404 518.91143,497.14457 494.125,480.09375 z M 333.21875,503.1875 c -13.54652,5.58448 -27.40764,9.3539 -41.3125,11.375 -14.33967,24.81378 -22.63952,52.81471 -23.9375,81.59375 32.40913,-0.13448 65.30857,-6.50064 97,-19.78125 l -31.75,-73.1875 z M 463.6875,520.84375 C 440.89421,545.98963 412.9202,567.12398 380.5,582.4375 l 35,80.65625 c 36.15025,-16.71879 68.14846,-38.81549 95.53125,-64.9375 -1.99001,-6.62445 -4.3678,-13.18711 -7.1875,-19.6875 -9.71257,-22.3908 -23.51601,-41.75471 -40.15625,-57.625 z M 269.84375,526.125 c -0.008,-0.004 -0.0445,0.0248 -0.0625,0.0312 0.0215,1.2e-4 0.0411,-6e-5 0.0625,0 -10e-4,-0.008 0.006,-0.0286 0,-0.0312 z M 232.375,581.90625 c -0.11922,0.0415 -0.42722,0.24016 -0.3125,0.1875 0.12821,-0.0589 0.24753,-0.12706 0.375,-0.1875 -0.0184,-0.007 -0.0442,0.008 -0.0625,0 z m -0.6875,0.1875 c -0.003,0.0179 -0.0294,0.14796 -0.0312,0.15625 -0.0252,0.11538 -0.0649,0.22945 -0.0937,0.34375 0.11972,0.0445 0.0814,0.0612 0.3125,0.34375 0.36379,0.1116 0.73133,0.24377 1.03125,0.46875 0.0215,0.0162 0.011,0.0263 0,0.0312 0.0546,0.01 0.10165,0.0524 0.15625,0.0625 -0.49042,-0.51871 -0.91598,-0.95907 -1.375,-1.40625 z m 138,5.15625 c -33.2645,13.95993 -67.85815,20.65329 -101.90625,20.75 0.48855,22.28779 5.25081,44.81728 14.65625,66.5 3.09354,7.13169 6.58713,13.96512 10.46875,20.46875 37.523,-2.77169 75.22342,-11.60561 111.75,-27.0625 L 369.6875,587.25 z m -152.875,15.96875 c -3.96845,29.7774 -0.45325,60.89365 11.6875,90.5625 16.90792,1.85671 34.01025,2.52608 51.1875,1.90625 -2.94149,-5.3089 -5.6298,-10.78849 -8.09375,-16.46875 -10.09218,-23.26593 -15.12268,-47.47089 -15.5625,-71.40625 -13.22143,-0.55055 -26.32388,-2.11082 -39.21875,-4.59375 z m 297.625,7.96875 C 487.14658,636.31599 455.59267,657.67147 420.21875,674 l 28.65625,66.03125 c 21.08522,-9.6318 41.05856,-20.6645 59.84375,-33.0625 0.006,-0.0166 0.0254,-0.0459 0.0312,-0.0625 10.43439,-30.26641 12.78304,-63.3151 5.6875,-95.71875 z M 409.375,678.78125 c -35.67614,15.10831 -72.44033,24.11279 -109.125,27.46875 18.9918,26.925 44.78406,47.42084 73.96875,60.1875 21.48036,-5.48026 42.79462,-12.65614 63.8125,-21.59375 L 409.375,678.78125 z m -175.21875,27.4375 c 15.4945,30.95171 39.02083,55.56769 66.90625,72.40625 18.35531,-1.47024 36.72076,-4.08544 55.03125,-7.9375 -27.62116,-14.70857 -51.69662,-36.23908 -69.4375,-63.46875 -17.59293,0.94542 -35.14453,0.57688 -52.5,-1 z m 292.875,12.5 c -0.0216,0.0178 -0.0441,0.0165 -0.0625,0.0312 l -0.25,0.3125 c -0.0552,0.0499 -0.13777,0.0697 -0.1875,0.125 -0.0408,0.0454 -0.17034,0.21307 -0.25,0.3125 -0.016,0.0424 -0.0744,0.1375 -0.0937,0.1875 0.23399,-0.25795 0.47888,-0.49769 0.71875,-0.75 0.0441,-0.0712 0.0809,-0.14754 0.125,-0.21875 z m -26.09375,7.1875 c -15.09821,9.17275 -30.89381,17.55746 -47.34375,25.0625 l 11.15625,25.6875 c 15.07198,-14.83238 27.25089,-32.04722 36.1875,-50.75 z m -58.1875,29.8125 c -16.35942,6.96006 -32.90332,12.90384 -49.5625,17.8125 19.43718,6.0113 39.98379,8.73374 60.71875,7.875 L 442.75,755.71875 z m -69.3125,23.09375 c -17.76571,4.36955 -35.63594,7.59686 -53.5,9.75 41.57285,18.75401 90.20153,21.56057 135.71875,4.4375 -28.39509,1.3517 -56.47065,-3.61875 -82.21875,-14.1875 z"
       style="fill:#006699;fill-opacity:1;stroke:none" />
    <path
       id="path2862-4-8"
       d="m 314.10919,467.21887 c -19.36396,9.5934 -36.25196,22.34203 -50.34375,37.3125 7.0201,0.13523 14.05932,-0.17462 21.125,-0.96875 8.15663,-13.14311 17.95225,-25.37378 29.21875,-36.34375 z m -60.21875,48.6875 c -17.53741,22.13375 -29.54476,48.12261 -35.09375,75.65625 12.29801,2.37683 24.79436,3.86969 37.40625,4.40625 1.2506,-27.94235 8.74149,-55.22776 21.59375,-79.875 -8.00263,0.49792 -15.9966,0.41255 -23.90625,-0.1875 z m -18.84375,107.90625 c 0.004,0.11392 -0.005,0.23044 0,0.34375 0.0837,-0.14381 0.10438,-0.27476 0,-0.34375 z m 22.0625,3.625 c -0.21039,0.2749 -0.39908,0.55643 -0.59375,0.84375 0.1823,-0.25609 0.3709,-0.49049 0.5625,-0.75 0.009,-0.0235 0.0222,-0.0714 0.0312,-0.0937 z m -20.3125,0.375 c -0.0114,-0.01 0.10973,0.23895 0.125,0.28125 0.0854,0.12354 0.16494,0.25126 0.25,0.375 -0.0445,-0.0819 -0.0786,-0.16896 -0.125,-0.25 -0.14582,-0.25486 -0.22753,-0.38752 -0.25,-0.40625 z"
       style="fill:#990000;fill-opacity:1;stroke:none" />
    <path
       id="path2862-4-82"
       d="m 520.3125,502.09375 c -1.84866,2.01698 -3.76152,3.97627 -5.8125,5.78125 -1.72469,1.51782 -3.5082,2.95645 -5.3125,4.375 0.35722,-0.11444 0.44157,-0.13038 1.15625,-0.375 1.40061,-0.4794 2.77815,-1.06535 4.21875,-1.40625 4.80328,-1.13665 7.62916,-1.49074 12.21875,-1.4375 -2.1,-2.37655 -4.25538,-4.68935 -6.46875,-6.9375 z m 7.78125,8.46875 c -8.0176,2.13636 -1.82603,7.79225 5.59375,13.875 1.02844,-1.02941 2.14662,-1.95932 3.3125,-2.6875 -2.82595,-3.86754 -5.80774,-7.5987 -8.90625,-11.1875 z m -14.875,10.03125 c -0.0838,0.009 -0.15571,0.0435 -0.1875,0.0625 0.004,0.008 0.004,0.0269 0.0312,0.0312 0.32347,0.0509 0.64089,0.0512 0.96875,0.0625 -0.11637,-0.0488 -0.19121,-0.0738 -0.3125,-0.125 -0.10208,-0.0431 -0.33238,-0.0498 -0.5,-0.0312 z m 1.21875,0.4375 c -0.24443,0.0833 -0.28108,0.10136 -0.4375,0.15625 0.15591,-0.0169 0.31235,-0.0182 0.46875,-0.0312 0.0991,-0.0267 0.20008,-0.0633 0.3125,-0.0937 -0.0398,-0.0164 -0.0846,-0.0145 -0.125,-0.0312 -0.0699,0.002 -0.154,-0.0122 -0.21875,0 z M 544,545.25 c 1.02535,1.48608 1.93156,3.08768 2.875,4.65625 -0.75599,-1.73344 -1.69111,-3.40621 -2.875,-4.65625 z m 15.1875,17.03125 C 548.68865,576.25856 537.15676,589.55376 524.625,602 c 8.18913,31.65658 7.73106,64.10726 -0.15625,94.53125 15.41831,-11.15581 29.99232,-23.17781 43.625,-36.03125 6.20145,-31.94691 3.69379,-65.90199 -8.90625,-98.21875 z m -47.875,36.09375 c -0.0551,0.0775 -0.16958,0.27441 -0.21875,0.34375 0.0853,-0.0812 0.1648,-0.16872 0.25,-0.25 -0.009,-0.0315 -0.0218,-0.0622 -0.0312,-0.0937 z m 51.4375,82.90625 c -13.85365,12.04817 -28.54613,23.33582 -44.03125,33.75 -9.59993,25.93058 -24.82999,49.77233 -44.84375,69.65625 0.0756,0.12256 0.14966,0.24618 0.21875,0.375 0.0345,0.0643 0.0622,0.12363 0.0937,0.1875 43.57496,-22.15097 74.46382,-60.22447 88.5625,-103.96875 z M 419.84375,747.875 c -0.0552,0.0729 -0.10009,0.14573 -0.15625,0.21875 0.10388,-0.0418 0.20851,-0.0834 0.3125,-0.125 -0.0473,-0.0396 -0.10951,-0.0539 -0.15625,-0.0937 z m -106,28.75 c -1.2396,0.51243 -2.46065,1.01265 -3.71875,1.53125 0.5532,-0.0556 1.10304,-0.12974 1.65625,-0.1875 0.68539,-0.45143 1.37736,-0.89181 2.0625,-1.34375 z m 73.4375,7.46875 c -0.53874,0.5727 -1.08561,1.15053 -1.625,1.71875 0.69338,-0.51531 1.37711,-1.06512 2.0625,-1.59375 -0.1344,-0.0434 -0.27195,-0.0813 -0.40625,-0.125 -0.009,-0.003 -0.0219,0.003 -0.0312,0 z"
       style="fill:#339966;fill-opacity:1;stroke:none" />
  </g>
  <path
     style="fill:#ffffff;fill-opacity:1;stroke:#ffffff;stroke-width:0;stroke-miterlimit:4;stroke-opacity:0;stroke-dasharray:none;stroke-dashoffset:0;display:inline"
     d="m 460.9811,306.875 c -25.11373,0 -45.3191,20.23476 -45.3191,45.38503 l 0,163.14787 c 0,25.15028 20.20537,45.40886 45.3191,45.40886 l 181.65701,0 c -0.0287,-0.12562 -0.0684,-0.25506 -0.0952,-0.38118 -1.36483,-6.44647 0.88439,-13.83599 4.87686,-18.91639 2.01176,-2.55996 4.59942,-4.40323 7.46992,-5.78928 0.47303,-3.05486 1.33478,-5.92691 2.83095,-8.3861 2.62688,-4.31767 6.04411,-8.45981 10.34846,-11.10206 6.80021,-4.17435 12.83149,-3.66429 19.86427,-3.69274 0.26809,-0.013 0.54084,-0.031 0.80885,-0.0477 -0.19112,0.0106 -0.40753,0.0307 -0.52338,0.0477 -0.65328,0.0952 -1.39491,0.0483 -1.95073,0.40501 -3.49409,2.24233 -6.64209,4.97337 -10.08678,7.29019 -0.5857,1.08118 -0.98933,2.30963 -1.16568,4.07393 -0.22422,2.24344 0.17389,4.49189 0.42821,6.74224 2.0751,-0.019 4.13821,0.15899 6.20907,0.35736 3.72166,-3.07587 7.44914,-4.31534 10.84804,-4.1454 8.17793,-12.17245 16.55576,-24.8426 18.27037,-6.28958 0.2717,2.93995 1.08258,5.87305 0.83264,8.81494 -0.41982,4.94133 -2.23927,7.02998 -4.61518,10.7447 1.16429,-1.93823 0.85046,-1.4159 -1.1181,0.45266 0.81403,3.97862 0.723,8.57469 -0.61853,13.413 0.002,0.012 -0.002,0.0118 0,0.0238 0.0408,0.27078 0.0253,0.21654 0.0713,0.52413 0.1031,0.68762 0.16761,1.38076 0.23789,2.0727 0.75059,1.17583 1.60975,2.45611 2.52169,3.78804 l 131.69895,0 c 25.11374,0 45.34289,-20.25858 45.34289,-45.40886 l 0,-163.14787 c 0,-25.15027 -20.22915,-45.38503 -45.34289,-45.38503 l -378.80101,0 z"
     id="rect2845-0" />
  <g
     id="g3816"
     transform="matrix(0.74981573,0,0,0.74981573,219.7486,79.469993)">
    <rect
       ry="55.983276"
       y="317.64584"
       x="274.29565"
       height="313.15646"
       width="604.05133"
       id="rect2845"
       style="fill:#339966;fill-opacity:1;stroke:#ffffff;stroke-width:0;stroke-miterlimit:4;stroke-opacity:0;stroke-dasharray:none;stroke-dashoffset:0;display:inline" />
  </g>
  <path
     style="fill:#ffffff;fill-opacity:1;stroke:#ffffff;stroke-width:0;stroke-miterlimit:4;stroke-opacity:0;stroke-dasharray:none;stroke-dashoffset:0;display:inline"
     d="m 80.425834,130.96973 c -26.802327,0 -48.366259,21.80326 -48.366259,48.87118 l 0,175.58756 c 0,27.06792 21.563932,48.84554 48.366259,48.84554 l 17.975494,0 c 0.02444,-1.80369 0.08791,-3.60483 0.355449,-5.38454 0.379699,-2.52561 1.517443,-5.28009 2.995913,-7.82042 0.006,-9.79888 8.26455,-17.14027 22.44398,-14.66649 5.55348,-3.41958 12.93844,-2.01268 19.14339,-1.82049 0.41358,-0.0409 0.74611,-0.0847 1.24406,-0.12821 0.89569,-0.0781 2.64045,-0.82776 2.71664,0.0768 0.0415,0.49199 0.0834,0.95597 0.12693,1.43587 0.59313,0.22615 1.03725,0.51998 1.39641,0.84615 3.324,-0.11166 6.63568,-0.0568 9.5971,0.89742 2.82977,0.91179 5.39619,2.49969 8.09912,3.74356 2.2003,2.21337 4.71612,4.14843 6.60117,6.64093 3.27616,4.3319 4.3169,10.11356 4.08765,15.41007 -0.0109,0.25181 -0.0352,0.51268 -0.0508,0.76922 l 307.53833,0 c 26.80232,0 48.39164,-21.77762 48.39164,-48.84554 l 0,-175.58756 c 0,-27.06792 -21.58932,-48.87118 -48.39164,-48.87118 l -404.270856,0 z M 148.8241,376.81281 c -0.44205,0.0148 -0.87887,0.0319 -1.32022,0.0513 0.21568,2.27289 0.45746,4.40458 0.71089,6.41018 1.64909,-2.77527 2.15448,-5.05831 0.60933,-6.46146 z m -1.32022,0.0513 c -0.0281,-0.29517 -0.0489,-0.59757 -0.076,-0.89743 -0.72411,-0.27608 -1.65634,-0.45325 -2.76741,-0.56408 -0.0136,0.52117 -0.013,1.04288 -0.0252,1.56408 0.945,-0.0379 1.90802,-0.0605 2.86897,-0.10257 z m -2.71664,-2.35894 c -0.0678,0.0103 -0.10029,0.0294 -0.10155,0.0768 0.18433,-0.004 0.37439,0.009 0.55854,0 -0.0505,-0.0298 -0.30108,-0.0998 -0.45699,-0.0768 z m -7.9214,1.10255 c -0.70831,0.0518 -0.98729,0.0739 -0.35545,0.0768 0.13773,-0.029 0.2259,-0.0495 0.35545,-0.0768 z"
     id="rect2845-0-9" />
  <text
     xml:space="preserve"
     style="font-size:24.50960541px;font-style:normal;font-weight:normal;fill:#ffffff;fill-opacity:1;stroke:none;font-family:Arial;-inkscape-font-specification:Arial"
     x="451.49435"
     y="366.10455"
     id="text3719-4"><tspan
       sodipodi:role="line"
       id="tspan3721-5"
       x="451.49435"
       y="366.10455">#Wikimedia</tspan><tspan
       sodipodi:role="line"
       x="451.49435"
       y="396.74155"
       id="tspan4125">#Wikimedia-Commons</tspan><tspan
       sodipodi:role="line"
       x="451.49435"
       y="427.37857"
       id="tspan4127">#Wikipedia-En</tspan><tspan
       sodipodi:role="line"
       x="451.49435"
       y="458.01556"
       id="tspan4133">#Wikipedia-En-Help</tspan><tspan
       sodipodi:role="line"
       x="451.49435"
       y="488.65259"
       id="tspan4129">#Wikipedia-Es</tspan><tspan
       sodipodi:role="line"
       x="451.49435"
       y="519.28955"
       id="tspan4131">#Wikipedia-De</tspan></text>
  <rect
     style="fill:#990000;fill-opacity:1;stroke:#ffffff;stroke-width:0;stroke-miterlimit:4;stroke-opacity:0;stroke-dasharray:none;stroke-dashoffset:0;display:inline"
     id="rect2845-1"
     width="482.19241"
     height="249.98152"
     x="41.505928"
     y="146.66151"
     ry="44.68943" />
  <text
     xml:space="preserve"
     style="font-size:150.10627747px;font-style:normal;font-weight:normal;fill:#ffffff;fill-opacity:1;stroke:none;font-family:Arial;-inkscape-font-specification:Arial"
     x="105.27893"
     y="326.54919"
     id="text3719"><tspan
       sodipodi:role="line"
       id="tspan3721"
       x="105.27893"
       y="326.54919">#IRC</tspan></text>
</svg>
