<?xml version="1.0" encoding="utf-8"?>
<!-- Generator: Adobe Illustrator 19.1.0, SVG Export Plug-In . SVG Version: 6.00 Build 0)  -->
<svg version="1.1" id="Layer_1" xmlns="http://www.w3.org/2000/svg" xmlns:xlink="http://www.w3.org/1999/xlink" x="0px" y="0px"
	 viewBox="0 0 852 852" style="enable-background:new 0 0 852 852;" xml:space="preserve">
<style type="text/css">
	.st0{fill:#1A1C1C;}
</style>
<g>
	<path class="st0" d="M852,426.1C852,663.5,656.8,854.8,420.8,852C189.6,849.3-1.8,659.4,0,422.5C1.8,189.9,191.6-0.2,426.5,0
		C661.2,0.2,852,191.2,852,426.1z M425.8,827.8c221-0.2,400.4-178.7,401.9-399c1.5-224.7-181-404.4-401.3-404.6
		C205.6,24.1,25.9,203,24.3,423C22.6,644.4,201.9,827.4,425.8,827.8z"/>
	<path class="st0" d="M425.9,802.1C214.1,801.6,47.5,627.7,50,421.5C52.5,217.8,219.3,49.3,427.3,50
		C635.7,50.7,803.9,221.9,802,429.7C800.1,632.2,635.2,801.6,425.9,802.1z M794.9,426C795.3,225.5,632.8,58.5,428.7,57
		C223.3,55.5,57.2,222.2,57,425.6C56.9,629.7,222.8,794,424.1,795C628.6,796,795.3,629.4,794.9,426z"/>
	<path class="st0" d="M464.5,507.3c6.1,7.3,13.5,10.1,22.1,10.5c8.7,0.4,16-2.7,22.7-8.8c4.9,10.2,9.6,19.8,14.3,29.6
		c-3.3,3.3-7,5.5-11.1,7.3c-10.9,4.8-22.4,5.8-34.2,4.8c-19.7-1.7-35.4-11.2-48.9-25.1c-3.9-4.1-7.7-8.3-11.2-12.8
		c-1.9-2.4-4.1-3.6-7-4.2c-14-3-26.5-9.2-37.1-18.9c-15.3-14-23.8-31.6-26.6-51.9c-2.5-18.1-0.2-35.7,7.5-52.4
		c11.7-25.4,31.6-40.7,58.9-46.2c16-3.3,32-2.7,47.6,1.9c24.8,7.4,42.6,23,52.1,47.1c11.1,28.1,9.4,55.9-5,82.6
		c-9,16.8-22.8,28.4-40.6,35.2C467.1,506.3,466.1,506.7,464.5,507.3z M451,502.8c0.6-0.3,1-0.5,1.4-0.6c1.1-0.3,2.2-0.6,3.3-0.8
		c22-5.4,38.4-18.1,48.2-38.5c10.8-22.4,12.1-45.7,3.6-69c-8.6-23.8-25.4-39.2-49.9-45.8c-13.6-3.7-27.5-4.1-41.3-1.4
		c-25.1,4.9-43.4,18.9-54,42.3c-7.6,16.6-9.2,34.1-6,52c5.6,31.3,28.4,54.4,59.4,60.4c3.4,0.6,5.5,2,7.5,4.7
		c6.3,8.4,13.5,16.1,21.7,22.7c13,10.4,27.9,14.9,44.3,14.4c7.4-0.2,14.6-1.8,21.4-5c1.1-0.5,2.1-1.3,3.2-2
		c-2.5-5.2-4.9-10-7.2-14.8C478.8,532.7,461.5,519.9,451,502.8z"/>
	<path class="st0" d="M344,359.6c-5.5,9.5-10.9,18.9-16.4,28.5c-1.4-0.9-2.6-1.6-3.8-2.3c-7.1-4.4-14.7-7.3-23.1-8.2
		c-4-0.5-7.9-0.1-11.8,1.1c-4.1,1.3-6.8,4-7.5,8.4c-0.7,4.2,0.8,7.6,4.2,10.1c2.5,1.8,5.2,3.5,8,4.8c6.5,3.2,13.2,6,19.7,9.1
		c7.3,3.5,14.3,7.6,20.2,13.3c8.4,8.1,12.6,18,13.2,29.6c0.3,5.5,0.1,11.1-1.3,16.5c-3.6,13.7-12,23.2-24.6,29.3
		c-7.3,3.5-15,5.3-23,5.9c-16.3,1.3-32-0.9-46.6-8.8c-4.3-2.3-8.3-5.3-12.8-8.3c6-9.8,11.6-19,17.6-28.8c1.9,1.3,3.6,2.5,5.2,3.7
		c8.9,6.2,18.7,9.5,29.5,9.1c4-0.1,7.9-1,11.4-2.9c7.4-4,9.3-13.7,1.5-19.2c-2.8-1.9-5.8-3.6-8.8-5.1c-6.5-3.2-13.1-6.1-19.6-9.3
		c-6.4-3.1-12.2-7.1-17.6-11.9c-19.4-17.2-22.5-60.2,13.5-75.3c6.2-2.6,12.7-4.2,19.4-4.6c13.6-0.8,26.9,0.9,39.5,6.4
		C335,352.9,339.5,355.7,344,359.6z M249,486.2c1.6,1,2.9,1.9,4.2,2.7c10,5.8,21,8.5,32.5,9c10.3,0.5,20.3-0.8,30-4.7
		c29.3-11.7,30.1-51.7,8.3-66.6c-4.6-3.1-9.3-6-14.2-8.5c-6.9-3.5-14.2-6.5-21.1-10c-3.4-1.7-6.7-3.8-9.5-6.4
		c-9.5-9-6.8-24.5,5.2-29.7c3.4-1.5,7.4-2.2,11.1-2.5c8.8-0.6,17.1,1.7,25.1,5.3c1.4,0.6,2.8,1.3,4.4,2.1c3-5.2,5.8-10.1,8.8-15.3
		c-2.2-1.2-3.9-2.3-5.8-3.2c-11.3-5.3-23.3-6.8-35.7-6.4c-7,0.3-13.8,1.8-20.1,4.9c-22.8,11.1-28,41.9-10.3,60.1
		c5,5.1,11,8.9,17.4,12.1c6.4,3.1,12.9,5.8,19.2,9.1c4.2,2.2,8.6,4.6,12.1,7.8c8.4,7.5,8,19.9-0.4,27.4c-3.5,3.1-7.6,5-12.1,5.9
		c-12.5,2.5-24.2,0.2-35.4-5.8c-1.5-0.8-2.9-1.5-4.6-2.4C255.1,476.2,252.2,480.9,249,486.2z"/>
	<path class="st0" d="M649.7,340.7c0-10.7,0-21,0-31.5c1.1-0.1,2.1-0.3,3-0.3c10.5,0,21,0,31.5,0c4.6,0,9,0.9,13.2,2.8
		c11.2,5,17.4,13.7,19,25.8c0.3,2.4,0.4,4.8,0.4,7.2c0,12.2-0.1,24.4,0.1,36.6c0,3.4,0.4,6.8,1,10.1c1.1,5.4,4.6,9.2,9.7,11
		c3.3,1.1,6.9,1.7,10.3,2.2c2.2,0.4,4.5,0.4,7,0.5c0,10.6,0,21,0,31.5c-3.2,0.4-6.4,0.5-9.4,1.1c-2.8,0.5-5.5,1.3-8.1,2.5
		c-6,2.7-9.4,7.6-10.3,14.1c-0.3,2.4-0.4,4.8-0.4,7.2c0,13.1,0.1,26.1-0.1,39.2c0,3.7-0.3,7.4-1.2,11c-3.2,13.4-13.9,23.1-27.6,23.9
		c-12.3,0.7-24.7,0.3-37,0.3c-0.4,0-0.8-0.3-1.4-0.5c0-10.3,0-20.6,0-31.1c1.6-0.1,3-0.2,4.4-0.2c5.1,0,10.2,0.1,15.3,0
		c5.1-0.1,7.2-2.1,8-7c0.4-2.4,0.5-4.8,0.5-7.2c0.1-12.3-0.1-24.7,0.1-37c0-3.7,0.3-7.4,1.1-11c1.5-7.4,5.6-13.3,11.6-17.8
		c1.1-0.8,2.3-1.6,3.7-2.7c-1-0.8-1.8-1.5-2.7-2.1c-8.4-6.4-13.2-14.9-13.5-25.4c-0.4-13.2-0.2-26.4-0.3-39.6c0-2.4-0.2-4.8-0.5-7.2
		c-0.6-4.3-2-5.7-6.3-6.1c-2.7-0.2-5.4-0.1-8.1-0.2C658.6,340.7,654.3,340.7,649.7,340.7z M706.1,424c-2.5,1.1-4.7,1.9-6.8,3
		c-7.6,3.8-12.4,9.8-13.7,18.3c-0.4,2.5-0.6,5.1-0.6,7.6c-0.1,12.8,0,25.6-0.1,38.3c0,2.8-0.3,5.7-0.8,8.4
		c-1.5,7-6.3,10.9-13.5,11.3c-1.7,0.1-3.4,0-5.1,0c-2.8,0-5.6,0-8.5,0c0,6.2,0,11.8,0,17.3c0.5,0.2,0.7,0.5,1,0.5
		c9.2,0,18.5,0.4,27.7-0.1c12.9-0.6,21.8-9,23.8-21.5c0.3-2.1,0.3-4.2,0.3-6.4c0-14.2-0.1-28.4,0-42.6c0.1-14.5,8.5-24.4,22.6-27.3
		c1.8-0.4,3.6-0.7,5.5-1.1c0-6,0-11.7,0-17.8c-1.4-0.3-2.6-0.4-3.8-0.7c-3-0.7-6.1-1.3-9-2.3c-8.1-3-12.9-9.1-14.5-17.5
		c-0.6-3.2-0.8-6.5-0.8-9.7c-0.1-13.3,0.1-26.7-0.1-40c-0.2-15.1-10.9-25.6-25.9-25.8c-7.9-0.1-15.9,0-23.8,0
		c-0.9,0-1.9,0.2-2.9,0.3c0,5.8,0,11.4,0,17.3c1.1,0.1,1.9,0.2,2.7,0.2c4,0,8-0.1,11.9,0.1c7.2,0.4,11.3,3.9,12.6,10.9
		c0.5,2.6,0.7,5.4,0.7,8c0.1,12.6-0.1,25.3,0.1,37.9c0.2,12.6,6.1,21.6,17.7,26.7c1.1,0.5,2.3,1.1,3.4,1.6
		C706.1,420.6,706.1,422.2,706.1,424z"/>
	<path class="st0" d="M216.2,308.8c0,10.8,0,21,0,31.5c-1.1,0.1-2.2,0.4-3.3,0.4c-5.1,0-10.2,0-15.3,0c-6.6,0.1-9,2.3-9.3,8.9
		c-0.2,4.8-0.1,9.7-0.1,14.5c0,8.1,0.2,16.2-0.1,24.3c-0.1,4.2-0.6,8.5-1.5,12.6c-1.6,7.1-5.6,12.6-11.4,16.9
		c-1.1,0.8-2.2,1.6-4.1,3c0.9,0.4,1.5,0.6,2,0.9c10.2,7,14.7,17,15,29.1c0.2,11.8,0.1,23.6,0.1,35.3c0,3.3-0.1,6.5,0.1,9.8
		c0.3,6.1,2.1,7.8,8.1,7.9c5.4,0.1,10.8,0,16.2,0c1.1,0,2.2,0.1,3.6,0.2c0,10.5,0,20.8,0,31.3c-1.2,0.1-2.3,0.3-3.3,0.3
		c-9.9,0-19.9,0.1-29.8-0.1c-3.6-0.1-7.4-0.5-10.9-1.5c-13.9-4-22.8-16.1-23-30.8c-0.2-13.9,0-27.8-0.1-41.7c0-3.2-0.2-6.5-0.7-9.7
		c-1-6.3-4.5-10.8-10.6-12.7c-4-1.2-8.3-1.7-12.5-2.4c-1.4-0.2-2.8,0-4.4,0c0-10.8,0-21.1,0-31.7c1.2-0.2,2.2-0.4,3.3-0.5
		c1.4-0.1,2.8-0.1,4.2-0.3c12.4-1.5,20.7-7.6,20.7-22.3c0-13.2-0.1-26.4,0.1-39.6c0-3.5,0.4-7.1,1.2-10.5
		c3.4-13.2,14.5-22.3,28.4-23c10.6-0.5,21.3-0.2,31.9-0.3C212.4,308.8,214.1,308.8,216.2,308.8z M209,316.5c-0.5-0.2-0.8-0.4-1-0.4
		c-9.5,0-19-0.4-28.5,0.1c-11.5,0.7-19.9,7.8-22.4,18.3c-0.7,3-1,6.2-1,9.3c-0.1,13.5,0.1,27-0.1,40.4c-0.2,14-7.7,23.1-21.3,26.5
		c-2.2,0.5-4.4,0.9-6.6,1.4c0,6.1,0,12,0,17.9c2.5,0.4,4.8,0.7,7,1.2c13.1,2.7,20.4,11.4,20.9,24.7c0.1,2.3,0.1,4.5,0.1,6.8
		c0,13.1,0,26.1,0,39.2c0,7,1.8,13.5,6.7,18.8c5,5.4,11.3,8.1,18.5,8.3c8.6,0.2,17.3,0.1,26,0.1c0.5,0,1.1-0.2,1.8-0.4
		c0-5.7,0-11.3,0-17.1c-1.2-0.1-2.1-0.3-3.1-0.3c-3.8,0-7.7,0.1-11.5-0.1c-7.7-0.3-12.1-4.4-13.1-11.9c-0.3-2.7-0.5-5.4-0.5-8.1
		c-0.1-13.6,0.1-27.2-0.2-40.9c-0.2-11.8-6-20.1-16.6-25.1c-1.4-0.7-2.8-1.3-4.3-2c0-1.8,0-3.4,0-5.3c1.4-0.6,2.7-1.1,4-1.6
		c10.9-4.5,16.9-12.5,17-24.5c0.1-12.5,0-25,0.1-37.5c0-2.7,0.2-5.4,0.6-8c1.2-7.7,6-12,13.8-12.4c3.4-0.2,6.8,0,10.2-0.1
		c1.1,0,2.2-0.2,3.5-0.3C209,327.5,209,321.9,209,316.5z"/>
	<path class="st0" d="M567.7,472c19.3,0,37.8,0,56.6,0c0,10.8,0,21.2,0,31.9c-31.8,0-63.3,0-95.2,0c0-53.1,0-106.1,0-159.4
		c12.8,0,25.5,0,38.6,0C567.7,386.8,567.7,429.1,567.7,472z M617.3,496.6c0-6,0-11.4,0-17.4c-4.9,0-9.5,0-14.1,0c-4.7,0-9.4,0-14,0
		c-4.8,0-9.6,0.1-14.5,0c-4.6-0.1-9.2,0.3-14.2-0.3c0-42.6,0-84.9,0-127c-6.4-0.8-21.5-0.6-24.4,0.4c0,48,0,96.1,0,144.4
		C563.2,496.6,590.1,496.6,617.3,496.6z"/>
	<path class="st0" d="M383.1,424.3c-0.1-10.5,1.4-20.2,5.3-29.5c9.7-23.2,30.1-31.7,51.3-29.8c20.2,1.8,33.6,13,40.3,31.8
		c6.7,18.8,6.7,37.9-0.4,56.7c-6.3,16.5-18.1,26.9-35.8,30c-8.8,1.5-17.6,1.2-26.1-1.5c-13.4-4.3-22.5-13.4-28.2-26
		C384.8,445.6,383.1,434.9,383.1,424.3z M391,423.7c0,10.9,2,20.9,6,29.3c3.7,7.9,9.1,14.3,16.9,18.5c22.6,12.2,50.2,1.9,58.8-22.2
		c6-16.7,5.9-33.8-0.2-50.4c-6-16.4-17.8-25.3-35.5-26.3c-19.9-1.1-35.4,9-42.1,27.7C392,407.9,390.9,415.7,391,423.7z"/>
</g>
</svg>
